<?xml version="1.0" encoding="UTF-8" standalone="no"?>
<!-- Generator: Adobe Illustrator 25.0.0, SVG Export Plug-In . SVG Version: 6.00 Build 0)  -->

<svg
   version="1.1"
   id="Capa_1"
   x="0px"
   y="0px"
   viewBox="0 0 525.6 209.5"
   style="enable-background:new 0 0 525.6 209.5;"
   xml:space="preserve"
   xmlns="http://www.w3.org/2000/svg"
   xmlns:svg="http://www.w3.org/2000/svg"><defs
   id="defs1359" />
<style
   type="text/css"
   id="style1262">
	.st0{fill:#E65218;}
	.st1{fill:#FFFFFF;}
	.st2{fill:#1B191C;}
</style>
<g
   id="g1342">
	
	<path
   class="st2"
   d="M258.8,76.2c-1.9-1.1-3.3-2.5-4.3-4.4c-1-1.9-1.5-4.1-1.5-6.6V47.8h5.8v17.3c0,2.4,0.6,4.3,1.7,5.6   s2.8,1.9,5,1.9s3.9-0.6,5-1.9c1.1-1.3,1.7-3.1,1.7-5.6V47.8h5.8v17.4c0,2.5-0.5,4.7-1.5,6.6c-1,1.9-2.4,3.4-4.3,4.4   c-1.9,1.1-4.1,1.6-6.7,1.6C262.9,77.8,260.7,77.3,258.8,76.2z"
   id="path1274" />
	<path
   class="st2"
   d="M284.6,54.1h5.3v3c1-1,2.1-1.8,3.5-2.5c1.4-0.7,2.9-1,4.4-1c2.5,0,4.4,0.7,5.8,2.1s2.1,3.3,2.1,5.6v16h-5.3   V62.7c0-1.4-0.4-2.5-1.1-3.3c-0.7-0.8-1.8-1.1-3.2-1.1c-1.2,0-2.3,0.4-3.4,1.1c-1.1,0.7-2,1.7-2.8,2.8v15.1h-5.3V54.1z"
   id="path1276" />
	<path
   class="st2"
   d="M312.1,50.1c-0.7-0.7-1-1.4-1-2.3c0-0.9,0.3-1.7,1-2.3c0.7-0.7,1.4-1,2.3-1c0.9,0,1.7,0.3,2.3,1   c0.7,0.7,1,1.4,1,2.3c0,0.9-0.3,1.7-1,2.3c-0.7,0.7-1.4,1-2.3,1C313.5,51.1,312.8,50.8,312.1,50.1z M311.8,54.1h5.3v23.2h-5.3V54.1   z"
   id="path1278" />
	<path
   class="st2"
   d="M321.3,54.1h5.7l5.3,14.2l0.7,4h0.2l0.7-4l5.3-14.2h5.7l-8.9,23.2h-5.8L321.3,54.1z"
   id="path1280" />
	<path
   class="st2"
   d="M352.5,76.3c-1.8-1-3.1-2.4-4.1-4.2s-1.4-3.9-1.4-6.3c0-2.4,0.5-4.4,1.6-6.3c1.1-1.8,2.5-3.3,4.2-4.3   c1.8-1,3.7-1.5,5.8-1.5c2.2,0,4.2,0.5,5.9,1.4c1.7,0.9,3.1,2.3,4,4.1c1,1.8,1.4,3.9,1.4,6.4v1.6h-17.8c0.1,1.9,0.8,3.4,2,4.5   c1.2,1.1,2.7,1.6,4.6,1.6c1.6,0,2.9-0.4,3.9-1.1c1-0.7,1.7-1.7,2.2-3l4.6,0.3l0.1,0.2c-0.7,2.6-2.1,4.6-3.9,6   c-1.9,1.4-4.2,2.1-7,2.1C356.3,77.8,354.3,77.3,352.5,76.3z M364.9,63.3c-0.2-1.7-0.8-3-2-3.9c-1.2-0.9-2.6-1.4-4.3-1.4   c-1.6,0-3,0.5-4.2,1.4c-1.2,0.9-1.9,2.3-2.2,3.9H364.9z"
   id="path1282" />
	<path
   class="st2"
   d="M374.8,54.1h5.3V57c2-2.2,4.2-3.3,6.7-3.3c0.8,0,1.5,0.1,2,0.4l-0.7,4.3l-0.2,0.1c-0.4-0.1-0.9-0.1-1.5-0.1   c-1.3,0-2.5,0.4-3.6,1.1c-1.1,0.7-2,1.8-2.7,3.2v14.7h-5.3V54.1z"
   id="path1284" />
	<path
   class="st2"
   d="M394.4,75.9c-1.7-1.3-2.8-3.1-3.2-5.4l0.1-0.3l4.4-0.7c0.3,1.3,0.9,2.2,1.7,2.9c0.8,0.7,2.1,1,3.7,1   c1.1,0,2.1-0.2,2.8-0.7c0.8-0.5,1.1-1.2,1.1-2c0-0.9-0.4-1.6-1.3-2.1c-0.9-0.5-2.4-1-4.6-1.6c-2.4-0.6-4.2-1.4-5.3-2.5   c-1.2-1.1-1.8-2.5-1.8-4.3c0-1.2,0.3-2.3,1-3.3c0.7-1,1.6-1.8,2.9-2.3c1.2-0.6,2.6-0.9,4.2-0.9c2.5,0,4.5,0.6,6.1,1.7   c1.5,1.2,2.5,2.8,2.8,5l-0.1,0.2l-4.5,0.6c-0.2-1.1-0.7-2-1.5-2.6c-0.8-0.6-1.7-0.9-2.9-0.9c-0.9,0-1.7,0.2-2.3,0.6   c-0.7,0.4-1,0.9-1,1.6c0,0.7,0.4,1.4,1.3,1.9s2.5,1.1,4.7,1.7c2.4,0.7,4.3,1.5,5.4,2.6c1.2,1.1,1.8,2.5,1.8,4.2   c0,1.4-0.4,2.7-1.1,3.9c-0.7,1.2-1.8,2.1-3.2,2.7c-1.4,0.7-3,1-4.8,1C398.3,77.8,396.1,77.1,394.4,75.9z"
   id="path1286" />
	<path
   class="st2"
   d="M415.4,50.1c-0.7-0.7-1-1.4-1-2.3c0-0.9,0.3-1.7,1-2.3c0.7-0.7,1.4-1,2.3-1c0.9,0,1.7,0.3,2.3,1   c0.7,0.7,1,1.4,1,2.3c0,0.9-0.3,1.7-1,2.3c-0.7,0.7-1.4,1-2.3,1C416.8,51.1,416,50.8,415.4,50.1z M415.1,54.1h5.3v23.2h-5.3V54.1z"
   id="path1288" />
	<path
   class="st2"
   d="M431,76.4c-1.7-1-3-2.4-4.1-4.2c-1-1.8-1.6-4-1.6-6.5c0-2.5,0.5-4.7,1.5-6.5c1-1.8,2.3-3.2,4-4.2   c1.7-0.9,3.5-1.4,5.6-1.4c1.4,0,2.7,0.2,4,0.7c1.2,0.5,2.3,1.1,3.2,2V43.4h5.3v33.9h-5.3v-2.5c-1.9,2-4.3,3-7.3,3   C434.5,77.8,432.7,77.3,431,76.4z M441.8,71.6c1.2-1.1,1.8-2.5,1.8-4.1V64c0-1.6-0.6-3-1.8-4.2c-1.2-1.1-2.7-1.7-4.4-1.7   c-1.9,0-3.5,0.6-4.7,1.9c-1.2,1.3-1.9,3.2-1.9,5.6c0,2.4,0.6,4.3,1.9,5.6s2.8,1.9,4.8,1.9C439.1,73.2,440.6,72.7,441.8,71.6z"
   id="path1290" />
	<path
   class="st2"
   d="M456.3,75.9c-1.4-1.3-2.1-2.9-2.1-5c0-2.1,0.7-3.8,2.2-5.1c1.5-1.3,3.4-2,5.8-2.3l6.7-0.7v-1.3   c0-1.2-0.4-2.1-1.2-2.8c-0.8-0.6-1.9-1-3.3-1c-1.2,0-2.2,0.3-2.9,0.9c-0.8,0.6-1.2,1.5-1.5,2.6l-4.6-0.2l-0.2-0.2   c0.4-2.4,1.5-4.2,3.3-5.4c1.7-1.3,3.8-1.9,6.2-1.9c2.8,0,5.1,0.7,6.8,2.1c1.7,1.4,2.6,3.3,2.6,5.8v9.5c0,1.5,0.6,2.3,1.9,2.3   c0.3,0,0.6,0,1-0.1l0.1,0.1v3.8c-1,0.3-1.9,0.5-2.9,0.5c-1.1,0-2.1-0.3-3-0.8c-0.9-0.5-1.5-1.4-1.9-2.6h-0.1c-1,1.1-2.1,2-3.4,2.6   c-1.3,0.7-2.7,1-4.2,1C459.4,77.8,457.7,77.2,456.3,75.9z M465.9,72.6c1-0.6,2-1.5,3-2.6v-3.4l-6,0.7c-1.2,0.2-2.1,0.5-2.7,1.1   c-0.6,0.6-0.9,1.3-0.9,2.2c0,0.9,0.3,1.6,0.9,2.1c0.6,0.5,1.4,0.7,2.4,0.7C463.8,73.5,464.9,73.2,465.9,72.6z"
   id="path1292" />
	<path
   class="st2"
   d="M485.1,76.4c-1.7-1-3-2.4-4.1-4.2c-1-1.8-1.6-4-1.6-6.5c0-2.5,0.5-4.7,1.5-6.5c1-1.8,2.3-3.2,4-4.2   c1.7-0.9,3.5-1.4,5.6-1.4c1.4,0,2.7,0.2,4,0.7c1.2,0.5,2.3,1.1,3.2,2V43.4h5.3v33.9h-5.3v-2.5c-1.9,2-4.3,3-7.3,3   C488.5,77.8,486.8,77.3,485.1,76.4z M495.9,71.6c1.2-1.1,1.8-2.5,1.8-4.1V64c0-1.6-0.6-3-1.8-4.2c-1.2-1.1-2.7-1.7-4.4-1.7   c-1.9,0-3.5,0.6-4.7,1.9c-1.2,1.3-1.9,3.2-1.9,5.6c0,2.4,0.6,4.3,1.9,5.6s2.8,1.9,4.8,1.9C493.2,73.2,494.6,72.7,495.9,71.6z"
   id="path1294" />
	<path
   class="st2"
   d="M252.2,90.5v-0.6h10.7v0.6l-3.8,0.8v27.1l3.8,0.8v0.6h-10.7v-0.6l3.8-0.8V91.3L252.2,90.5z"
   id="path1296" />
	<path
   class="st2"
   d="M273.1,95.3v3.5h0.1c1.7-1.9,4.6-3.7,7.8-3.7c3.7,0,6.9,2.2,6.9,7.7v14.7l3.3,0.7v0.6h-9.5v-0.6l3.2-0.7v-15.1   c0-4-2.3-5.5-5-5.5c-2.4,0-5,1.2-6.7,2.9v17.7l3.2,0.7v0.6h-9.5v-0.6l3.3-0.7V97.7l-3.4-0.4v-0.7l5.9-1.3H273.1z"
   id="path1298" />
	<path
   class="st2"
   d="M294,96.1l3.3-0.5l2-7h0.9v7h6v1.3h-6v19.4c1,1,2.5,1.5,4,1.5c1.3,0,2.7-0.5,3.9-1.3l0.5,0.7   c-1.8,1.4-3.8,2.2-5.7,2.2c-2.2,0-4.2-0.8-5.6-2.5v-20H294V96.1z"
   id="path1300" />
	<path
   class="st2"
   d="M329.5,114.2c-1.6,2.7-4,5.2-8.4,5.2c-6.2,0-10.1-4.2-10.1-12.4c0-7.2,4.4-11.9,9.9-11.9c5.9,0,8.7,4.1,8.7,10   v1.8l-15.7-0.1v0.4c0,7.2,3.2,10.3,7.5,10.3c3.8,0,5.8-1.9,7.5-3.8L329.5,114.2z M314,105.8l12.8-0.4v-0.9c0-5-2.1-8.3-5.9-8.3   C317.2,96.3,314.4,99.7,314,105.8z"
   id="path1302" />
	<path
   class="st2"
   d="M347.3,100.8c0,0-0.3-2.8-0.9-3.9c-3.1,0.3-5.9,2.9-6.7,3.9v16.8l3.9,0.7v0.6h-10.2v-0.6l3.3-0.7V97.7   l-3.4-0.4v-0.7l5.9-1.3h0.3v4.3h0.1c1.7-2.6,4.6-4.5,7.9-4.5c0.7,0,1.3,0,2,0.2c0,3.3-0.8,5.4-0.8,5.4H347.3z"
   id="path1304" />
	<path
   class="st2"
   d="M358.6,95.3v3.5h0.1c1.7-1.9,4.6-3.7,7.8-3.7c3.7,0,6.9,2.2,6.9,7.7v14.7l3.3,0.7v0.6h-9.5v-0.6l3.2-0.7v-15.1   c0-4-2.3-5.5-5-5.5c-2.4,0-5,1.2-6.7,2.9v17.7l3.2,0.7v0.6h-9.5v-0.6l3.3-0.7V97.7l-3.4-0.4v-0.7l5.9-1.3H358.6z"
   id="path1306" />
	<path
   class="st2"
   d="M397.1,102.6c0,3.3-0.1,4.6-0.1,13c0,1.5,0.8,2,1.8,2c1.1,0,2.1-1.1,2.6-2l0.6,0.4c-1.1,2.5-2.4,3.3-4.1,3.3   c-2.2,0-3.6-1.3-3.7-3.5c-1.5,1.6-3.7,3.6-7,3.6c-3.3,0-6.4-1.5-6.4-5.9v-2.8c3.1-3.7,10.2-5.2,13.6-5.9v-2.5c0-4.1-1.8-6-5.3-6   c-2,0-3.5,0.7-4.5,1.4c-0.8,1.7-0.8,4.6-0.8,4.6h-1.5c0,0-1-1.5-1.2-3.7c1.7-1.8,4.7-3.4,8.7-3.4   C393.9,95.2,397.1,97.1,397.1,102.6z M394.1,114.7c0-2.7,0-5.7,0.1-8.7c-3,0.6-7.7,1.8-10.6,4.5v2.6c0,3.3,2,4.6,4.4,4.6   C391.3,117.6,393.5,115.4,394.1,114.7z"
   id="path1308" />
	<path
   class="st2"
   d="M419,97.7c-0.6-0.5-1.9-1.3-3.9-1.3c-4.9,0-8,4-8,11c0,7.1,3.6,10,8,10c3.3,0,5.6-1.6,7.6-3.7l0.6,0.5   c-1.4,2.7-4.1,5.2-8.6,5.2c-6.5,0-10.6-4-10.6-11.9c0-7.7,5.4-12.4,11.3-12.4c3,0,5.9,1.2,7.2,2.7c-0.1,2.6-1.1,4-1.3,4.3h-1.8   C419.7,101.8,419.7,99.4,419,97.7z"
   id="path1310" />
	<path
   class="st2"
   d="M432.7,117.6l3.3,0.7v0.6h-9.7v-0.6l3.3-0.7V97.7l-3.4-0.4v-0.7l6.1-1.3h0.3V117.6z M431,86c1.1,0,2,0.9,2,2   c0,1.1-0.9,2-2,2c-1.1,0-2-0.9-2-2C429,87,429.9,86,431,86z"
   id="path1312" />
	<path
   class="st2"
   d="M460.7,107.2c0,7.7-4.7,12.2-10.5,12.2c-6,0-10.5-4.3-10.5-11.9c0-7.7,4.6-12.3,10.5-12.3   C456.2,95.2,460.7,99.5,460.7,107.2z M457.4,107.3c0-7.1-3.2-11-7.5-11c-4.4,0-7,3.9-7,11.1c0,7,3.2,10.9,7.6,10.9   C454.8,118.2,457.4,114.3,457.4,107.3z"
   id="path1314" />
	<path
   class="st2"
   d="M470.7,95.3v3.5h0.1c1.7-1.9,4.6-3.7,7.8-3.7c3.7,0,6.9,2.2,6.9,7.7v14.7l3.3,0.7v0.6h-9.5v-0.6l3.2-0.7v-15.1   c0-4-2.3-5.5-5-5.5c-2.4,0-5,1.2-6.7,2.9v17.7l3.2,0.7v0.6h-9.5v-0.6l3.3-0.7V97.7l-3.4-0.4v-0.7l5.9-1.3H470.7z"
   id="path1316" />
	<path
   class="st2"
   d="M509.2,102.6c0,3.3-0.1,4.6-0.1,13c0,1.5,0.8,2,1.8,2c1.1,0,2.1-1.1,2.6-2l0.6,0.4c-1.1,2.5-2.4,3.3-4.1,3.3   c-2.2,0-3.6-1.3-3.7-3.5c-1.5,1.6-3.7,3.6-7,3.6c-3.3,0-6.4-1.5-6.4-5.9v-2.8c3.1-3.7,10.2-5.2,13.6-5.9v-2.5c0-4.1-1.8-6-5.3-6   c-2,0-3.5,0.7-4.5,1.4c-0.8,1.7-0.8,4.6-0.8,4.6h-1.5c0,0-1-1.5-1.2-3.7c1.7-1.8,4.7-3.4,8.7-3.4C506,95.2,509.2,97.1,509.2,102.6z    M506.1,114.7c0-2.7,0-5.7,0.1-8.7c-3,0.6-7.7,1.8-10.6,4.5v2.6c0,3.3,2,4.6,4.4,4.6C503.4,117.6,505.5,115.4,506.1,114.7z"
   id="path1318" />
	<path
   class="st2"
   d="M522.2,117.6l3.3,0.7v0.6h-9.7v-0.6l3.3-0.7V86.9l-3.4-0.4v-0.7l6.1-1h0.3V117.6z"
   id="path1320" />
	<path
   class="st2"
   d="M271.5,126.5v32.7l3.3,0.7v0.7H269l-0.3-3.2h-0.2c-1.2,1.5-3.8,3.6-7.2,3.6c-6.2,0-9.5-4.2-9.5-11.7   c0-7.4,4.4-12.6,10.6-12.6c2.8,0,4.9,0.7,6.1,1.3v-9.6l-3.4-0.4v-0.7l6.1-1H271.5z M268.5,156.2v-15.9c-1-1-3-2.4-5.8-2.4   c-5.2,0-7.7,4.5-7.7,11.2c0,7.2,2.8,9.9,7.4,9.9C264.9,159.1,267.1,157.8,268.5,156.2z"
   id="path1322" />
	<path
   class="st2"
   d="M297,155.8c-1.6,2.7-4,5.2-8.4,5.2c-6.2,0-10.1-4.2-10.1-12.4c0-7.2,4.4-11.9,9.9-11.9c5.9,0,8.7,4.1,8.7,10   v1.8l-15.7-0.1v0.4c0,7.2,3.2,10.3,7.5,10.3c3.8,0,5.8-1.9,7.5-3.8L297,155.8z M281.5,147.5l12.8-0.4v-0.9c0-5-2.1-8.3-5.9-8.3   C284.7,137.9,281.9,141.3,281.5,147.5z"
   id="path1324" />
	<path
   class="st2"
   d="M324.9,161l-11.6-28.6l-3.1-0.7v-0.6h10.3v0.6l-3.6,0.7l9.4,23.9h0.1l9-23.9l-3.6-0.7v-0.6h8.3v0.6l-3.2,0.7   L326.2,161H324.9z"
   id="path1326" />
	<path
   class="st2"
   d="M357.2,144.2c0,3.3-0.1,4.6-0.1,13c0,1.5,0.8,2,1.8,2c1.1,0,2.1-1.1,2.6-2l0.6,0.4c-1.1,2.5-2.4,3.3-4.1,3.3   c-2.2,0-3.6-1.3-3.7-3.5c-1.5,1.6-3.7,3.6-7,3.6c-3.3,0-6.4-1.5-6.4-5.9v-2.8c3.1-3.7,10.2-5.2,13.6-5.9V144c0-4.1-1.8-6-5.3-6   c-2,0-3.5,0.7-4.5,1.4c-0.8,1.7-0.8,4.6-0.8,4.6h-1.5c0,0-1-1.5-1.2-3.7c1.7-1.8,4.7-3.4,8.7-3.4   C354,136.8,357.2,138.7,357.2,144.2z M354.2,156.3c0-2.7,0-5.7,0.1-8.7c-3,0.6-7.7,1.8-10.6,4.5v2.6c0,3.3,2,4.6,4.4,4.6   C351.4,159.2,353.6,157,354.2,156.3z"
   id="path1328" />
	<path
   class="st2"
   d="M370.2,159.2l3.3,0.7v0.6h-9.7v-0.6l3.3-0.7v-30.7l-3.4-0.4v-0.7l6.1-1h0.3V159.2z"
   id="path1330" />
	<path
   class="st2"
   d="M395.6,155.8c-1.6,2.7-4,5.2-8.4,5.2c-6.2,0-10.1-4.2-10.1-12.4c0-7.2,4.4-11.9,9.9-11.9c5.9,0,8.7,4.1,8.7,10   v1.8l-15.7-0.1v0.4c0,7.2,3.2,10.3,7.5,10.3c3.8,0,5.8-1.9,7.5-3.8L395.6,155.8z M380.1,147.5l12.8-0.4v-0.9c0-5-2.1-8.3-5.9-8.3   C383.3,137.9,380.5,141.3,380.1,147.5z"
   id="path1332" />
	<path
   class="st2"
   d="M405.7,136.9v3.5h0.1c1.7-1.9,4.6-3.7,7.8-3.7c3.7,0,6.9,2.2,6.9,7.7v14.7l3.3,0.7v0.6h-9.5v-0.6l3.2-0.7   v-15.1c0-4-2.3-5.5-5-5.5c-2.4,0-5,1.2-6.7,2.9v17.7l3.2,0.7v0.6h-9.5v-0.6l3.3-0.7v-19.9l-3.4-0.4v-0.7l5.9-1.3H405.7z"
   id="path1334" />
	<path
   class="st2"
   d="M442.2,139.3c-0.6-0.5-1.9-1.3-3.9-1.3c-4.9,0-8,4-8,11c0,7.1,3.6,10,8,10c3.3,0,5.6-1.6,7.6-3.7l0.6,0.5   c-1.4,2.7-4.1,5.2-8.6,5.2c-6.5,0-10.6-4-10.6-11.9c0-7.7,5.4-12.4,11.3-12.4c3,0,5.9,1.2,7.2,2.7c-0.1,2.6-1.1,4-1.3,4.3h-1.8   C442.8,143.5,442.8,141,442.2,139.3z"
   id="path1336" />
	<path
   class="st2"
   d="M455.9,159.2l3.3,0.7v0.6h-9.7v-0.6l3.3-0.7v-19.9l-3.4-0.4v-0.7l6.1-1.3h0.3V159.2z M454.2,127.7   c1.1,0,2,0.9,2,2s-0.9,2-2,2c-1.1,0-2-0.9-2-2S453,127.7,454.2,127.7z"
   id="path1338" />
	<path
   class="st2"
   d="M479.8,144.2c0,3.3-0.1,4.6-0.1,13c0,1.5,0.8,2,1.8,2c1.1,0,2.1-1.1,2.6-2l0.6,0.4c-1.1,2.5-2.4,3.3-4.1,3.3   c-2.2,0-3.6-1.3-3.7-3.5c-1.5,1.6-3.7,3.6-7,3.6c-3.3,0-6.4-1.5-6.4-5.9v-2.8c3.1-3.7,10.2-5.2,13.6-5.9V144c0-4.1-1.8-6-5.3-6   c-2,0-3.5,0.7-4.5,1.4c-0.8,1.7-0.8,4.6-0.8,4.6h-1.5c0,0-1-1.5-1.2-3.7c1.7-1.8,4.7-3.4,8.7-3.4   C476.6,136.8,479.8,138.7,479.8,144.2z M476.7,156.3c0-2.7,0-5.7,0.1-8.7c-3,0.6-7.7,1.8-10.6,4.5v2.6c0,3.3,2,4.6,4.4,4.6   C474,159.2,476.1,157,476.7,156.3z"
   id="path1340" />
</g>
<g
   id="g1344">
</g>
<g
   id="g1346">
</g>
<g
   id="g1348">
</g>
<g
   id="g1350">
</g>
<g
   id="g1352">
</g>
<g
   id="g1354">
</g>
</svg>
