<?xml version="1.0" encoding="UTF-8" standalone="no"?>
<svg
   width="160"
   height="64"
   viewBox="0 0 160 64"
   version="1.1"
   id="svg10"
   xmlns="http://www.w3.org/2000/svg"
   xmlns:svg="http://www.w3.org/2000/svg">
  <defs
     id="defs14" />
  <g
     fill="none"
     fill-rule="evenodd"
     id="g8">
    <path
       fill="#F25416"
       d="M55.797 7.817c-10.365-10.423-27.17-10.423-37.536 0L7.774 18.363c-10.365 10.423-10.365 27.322 0 37.745 10.365 10.423 27.171 10.423 37.536 0l10.487-10.546c10.365-10.423 10.365-27.322 0-37.745"
       id="path2" />
    <path
       fill="#FFF"
       d="M41.868 40.292c-1.537 0-2.74-.445-3.574-1.323-.84-.88-1.263-2.103-1.263-3.63v-9.85h2.963v9.192c0 .971.265 1.73.79 2.255.523.526 1.268.793 2.212.793.812 0 1.58-.242 2.285-.723.693-.47 1.302-1.102 1.81-1.88l.035-9.638h2.964v14.504h-2.964v-2.246l-.367.405c-.575.634-1.29 1.155-2.13 1.547-.84.394-1.769.594-2.761.594M33.221 39.274L33.221 25.489 23.462 25.489 23.462 25.744 25.295 26.183 20.93 37.625 20.872 37.625 16.246 26.183 18.195 25.744 18.195 25.489 11.717 25.489 11.717 25.744 13.404 26.183 19.341 40.316 20.756 40.316 26.293 26.012 30.481 26.012 30.481 39.274 28.386 39.743 28.386 40.024 35.316 40.024 35.316 39.743 33.221 39.274M31.824 22.197c.87 0 1.594-.729 1.594-1.603s-.725-1.603-1.594-1.603c-.869 0-1.594.73-1.594 1.603 0 .874.725 1.603 1.594 1.603"
       id="path4" />
  </g>
</svg>
