<?xml version="1.0" encoding="UTF-8" standalone="no"?>
<svg
   width="160"
   height="64"
   viewBox="0 0 160 64"
   version="1.1"
   id="svg10"
   sodipodi:docname="logoVIU-letras.svg"
   inkscape:version="1.1.2 (0a00cf5339, 2022-02-04)"
   xmlns:inkscape="http://www.inkscape.org/namespaces/inkscape"
   xmlns:sodipodi="http://sodipodi.sourceforge.net/DTD/sodipodi-0.dtd"
   xmlns="http://www.w3.org/2000/svg"
   xmlns:svg="http://www.w3.org/2000/svg">
  <defs
     id="defs14" />
  <sodipodi:namedview
     id="namedview12"
     pagecolor="#ffffff"
     bordercolor="#666666"
     borderopacity="1.0"
     inkscape:pageshadow="2"
     inkscape:pageopacity="0.0"
     inkscape:pagecheckerboard="0"
     showgrid="false"
     inkscape:zoom="5.2"
     inkscape:cx="56.25"
     inkscape:cy="8.9423077"
     inkscape:window-width="2560"
     inkscape:window-height="1363"
     inkscape:window-x="2560"
     inkscape:window-y="0"
     inkscape:window-maximized="1"
     inkscape:current-layer="svg10" />
  <g
     fill="none"
     fill-rule="evenodd"
     id="g8">
    <path
       fill="#000"
       d="M78.512 23.25c-.573-.321-1.01-.773-1.31-1.354-.3-.58-.451-1.249-.451-2.005v-5.314h1.761v5.286c0 .737.172 1.301.515 1.693.343.392.853.588 1.529.588.676 0 1.186-.196 1.529-.588.343-.392.514-.956.514-1.693v-5.286h1.762v5.314c0 .756-.15 1.424-.451 2.005-.301.581-.738 1.033-1.31 1.354-.574.321-1.255.482-2.044.482-.79 0-1.47-.16-2.044-.482M86.348 16.504h1.606v.921c.292-.302.646-.554 1.065-.758.417-.203.866-.304 1.345-.304.752 0 1.336.215 1.755.645.418.43.627.999.627 1.707v4.875h-1.607v-4.464c0-.434-.11-.768-.331-.999-.221-.231-.543-.347-.965-.347-.358 0-.703.111-1.036.333-.334.222-.618.508-.853.857v4.62h-1.606v-7.086M94.591 23.59h1.607v-7.086h-1.607v7.086zm.099-8.304c-.197-.199-.296-.435-.296-.709 0-.274.099-.51.296-.708.197-.199.432-.298.705-.298.272 0 .507.1.704.298.198.198.296.434.296.708 0 .274-.098.51-.296.709-.197.198-.432.297-.704.297-.273 0-.508-.099-.705-.297zM97.48 16.504L99.214 16.504 100.82 20.841 101.046 22.059 101.102 22.059 101.328 20.841 102.934 16.504 104.668 16.504 101.962 23.59 100.2 23.59 97.48 16.504M110.713 19.31c-.047-.51-.247-.909-.6-1.197-.351-.288-.79-.432-1.317-.432-.488 0-.909.144-1.26.432-.353.288-.576.687-.67 1.197h3.847zm-3.763 3.96c-.535-.306-.949-.738-1.24-1.296-.291-.557-.437-1.2-.437-1.927 0-.718.162-1.355.487-1.913.324-.558.753-.992 1.29-1.304.535-.311 1.117-.467 1.746-.467.667 0 1.262.144 1.783.432.521.288.928.706 1.219 1.254.29.548.437 1.195.437 1.941v.497h-5.397c.037.576.237 1.032.599 1.367.361.335.824.503 1.388.503.479 0 .874-.11 1.183-.333.31-.222.531-.527.663-.914l1.409.085.042.07c-.225.794-.622 1.404-1.19 1.829-.57.425-1.28.638-2.136.638-.695 0-1.31-.154-1.846-.461zM113.715 16.504h1.606v.879c.592-.68 1.269-1.02 2.03-1.02.253 0 .455.037.605.113l-.211 1.304-.056.042c-.113-.028-.268-.042-.465-.042-.395 0-.757.113-1.086.34-.329.227-.6.553-.817.978v4.492h-1.606v-7.086M119.647 23.143c-.516-.392-.84-.937-.972-1.636l.029-.085 1.338-.227c.094.387.268.685.522.893.253.208.63.311 1.127.311.338 0 .622-.075.852-.226.23-.151.346-.36.346-.624s-.132-.474-.395-.63c-.263-.156-.728-.32-1.395-.49-.724-.179-1.264-.436-1.62-.772-.357-.335-.536-.777-.536-1.325 0-.358.103-.689.31-.991.207-.303.498-.54.874-.716.375-.175.803-.262 1.282-.262.76 0 1.376.177 1.846.531.47.354.752.862.846 1.524l-.029.07-1.366.185c-.066-.35-.214-.617-.444-.801-.23-.184-.52-.276-.867-.276-.273 0-.51.056-.712.17-.202.113-.303.278-.303.496 0 .226.137.415.409.566.272.151.752.322 1.437.51.742.2 1.292.459 1.65.78.356.321.535.751.535 1.29 0 .434-.113.828-.339 1.183-.225.354-.547.633-.965.836-.418.203-.9.305-1.444.305-.827 0-1.499-.196-2.016-.589M125.919 23.59h1.606v-7.086h-1.606v7.086zm.098-8.304c-.197-.199-.296-.435-.296-.709 0-.274.099-.51.296-.708.198-.199.432-.298.705-.298.272 0 .507.1.705.298.197.198.295.434.295.708 0 .274-.098.51-.295.709-.198.198-.433.297-.705.297-.273 0-.507-.099-.705-.297zM134.029 21.832c.37-.34.556-.76.556-1.26v-1.035c0-.5-.185-.923-.556-1.268-.372-.345-.82-.518-1.346-.518-.583 0-1.062.197-1.438.588-.376.392-.563.962-.563 1.708s.187 1.316.563 1.708c.376.392.86.588 1.452.588.516 0 .96-.17 1.332-.51zm-3.263 1.46c-.507-.292-.918-.718-1.233-1.275-.315-.558-.472-1.214-.472-1.97 0-.765.15-1.426.451-1.984.3-.557.707-.98 1.219-1.268.512-.288 1.073-.432 1.684-.432.432 0 .834.07 1.205.212.37.142.693.34.965.595v-3.925h1.607V23.59h-1.607v-.765c-.563.604-1.301.907-2.212.907-.564 0-1.1-.147-1.607-.44zM141.35 22.137c.31-.184.614-.45.915-.8v-1.035l-1.832.213c-.366.047-.643.162-.831.347-.188.184-.282.409-.282.673 0 .283.094.501.282.652.188.151.427.226.719.226.375 0 .718-.092 1.028-.276zm-2.925 1.02c-.427-.382-.64-.894-.64-1.537 0-.652.222-1.169.668-1.552.447-.382 1.036-.611 1.769-.687l2.043-.212v-.383c0-.368-.122-.65-.366-.843-.244-.194-.573-.29-.986-.29-.367 0-.665.09-.895.269-.23.18-.379.444-.444.793l-1.396-.07-.07-.058c.131-.718.46-1.268.987-1.65.525-.383 1.15-.574 1.874-.574.855 0 1.545.215 2.071.645.527.43.79 1.018.79 1.764v2.905c0 .472.187.708.563.708.085 0 .188-.014.31-.042l.042.028v1.162c-.29.094-.587.142-.887.142-.339 0-.642-.08-.91-.241-.267-.16-.462-.425-.584-.794h-.042c-.3.331-.646.595-1.036.794-.39.198-.81.298-1.261.298-.64 0-1.172-.192-1.6-.574zM150.432 21.832c.371-.34.557-.76.557-1.26v-1.035c0-.5-.186-.923-.557-1.268-.371-.345-.82-.518-1.346-.518-.582 0-1.061.197-1.437.588-.376.392-.564.962-.564 1.708s.188 1.316.564 1.708c.376.392.86.588 1.451.588.517 0 .961-.17 1.332-.51zm-3.262 1.46c-.507-.292-.919-.718-1.233-1.275-.315-.558-.472-1.214-.472-1.97 0-.765.15-1.426.45-1.984.3-.557.707-.98 1.22-1.268.511-.288 1.073-.432 1.684-.432.432 0 .833.07 1.204.212.372.142.693.34.966.595v-3.925h1.606V23.59h-1.606v-.765c-.564.604-1.302.907-2.213.907-.564 0-1.099-.147-1.606-.44zM76.498 27.622L76.498 27.436 79.759 27.436 79.759 27.622 78.62 27.851 78.62 36.105 79.759 36.334 79.759 36.52 76.498 36.52 76.498 36.334 77.637 36.105 77.637 27.851 76.498 27.622M82.853 29.07v1.078h.042c.508-.581 1.41-1.12 2.368-1.12 1.113 0 2.086.68 2.086 2.353v4.492l1.015.227v.184h-2.89V36.1l.973-.227v-4.591c0-1.22-.69-1.673-1.522-1.673-.733 0-1.508.369-2.03.88v5.384l.973.227v.184h-2.89V36.1l1.015-.227v-6.065l-1.029-.128v-.198l1.804-.411h.085M89.208 29.312l1.015-.142.606-2.126h.282v2.126h1.832v.397h-1.832v5.924c.31.297.747.467 1.212.467.395 0 .818-.155 1.17-.396l.155.198c-.55.44-1.156.666-1.734.666-.662 0-1.282-.255-1.705-.765v-6.094h-1v-.255M95.268 32.288l3.876-.113v-.284c0-1.516-.634-2.522-1.804-2.522-1.1 0-1.96 1.034-2.072 2.919zm4.707 2.537c-.479.836-1.212 1.601-2.55 1.601-1.89 0-3.073-1.275-3.073-3.77 0-2.182 1.34-3.628 3.016-3.628 1.776 0 2.65 1.262 2.65 3.047v.539l-4.764-.029v.114c0 2.21.958 3.146 2.283 3.146 1.142 0 1.762-.567 2.283-1.148l.155.128zM105.358 30.757s-.084-.85-.268-1.19c-.944.099-1.776.879-2.029 1.19v5.116l1.17.227v.184h-3.087V36.1l1.015-.227v-6.065l-1.029-.128v-.198l1.804-.411h.085v1.318h.042c.521-.808 1.395-1.36 2.396-1.36.197 0 .409.013.62.07 0 1.006-.254 1.658-.254 1.658h-.465M108.783 29.07v1.078h.042c.507-.581 1.41-1.12 2.368-1.12 1.113 0 2.085.68 2.085 2.353v4.492l1.015.227v.184h-2.889V36.1l.972-.227v-4.591c0-1.22-.69-1.673-1.522-1.673-.732 0-1.508.369-2.029.88v5.384l.972.227v.184h-2.889V36.1l1.015-.227v-6.065l-1.029-.128v-.198l1.804-.411h.085M119.55 34.98c0-.836.014-1.743.028-2.65-.917.184-2.34.553-3.228 1.36v.78c0 .992.606 1.403 1.339 1.403 1.029 0 1.677-.666 1.86-.892zm.93-3.684c0 1.02-.043 1.417-.043 3.954 0 .468.254.61.536.61.324 0 .634-.327.789-.596l.17.127c-.34.752-.72 1.007-1.255 1.007-.677 0-1.1-.383-1.127-1.077-.466.496-1.114 1.105-2.129 1.105-1 0-1.945-.453-1.945-1.786v-.864c.945-1.134 3.087-1.587 4.116-1.786v-.765c0-1.262-.55-1.842-1.607-1.842-.62 0-1.071.226-1.353.44-.24.523-.254 1.388-.254 1.388h-.465s-.31-.454-.366-1.134c.507-.553 1.437-1.049 2.635-1.049 1.31 0 2.298.581 2.298 2.268zM127.13 29.808c-.168-.142-.577-.397-1.183-.397-1.48 0-2.438 1.233-2.438 3.359 0 2.154 1.1 3.047 2.438 3.047 1 0 1.691-.496 2.297-1.134l.183.142c-.422.822-1.24 1.601-2.607 1.601-1.959 0-3.227-1.219-3.227-3.628 0-2.352 1.649-3.77 3.425-3.77.916 0 1.775.369 2.198.836-.028.78-.338 1.233-.38 1.304h-.536c.014-.1.014-.85-.17-1.36M130.766 26.25c.339 0 .62.284.62.624s-.281.624-.62.624c-.338 0-.62-.284-.62-.624s.282-.624.62-.624zm.522 9.623l1.015.227v.184h-2.932V36.1l1.015-.227v-6.065l-1.029-.128v-.198l1.846-.411h.085v6.802zM138.757 32.727c0-2.154-.958-3.344-2.269-3.344-1.325 0-2.114 1.204-2.114 3.372 0 2.14.958 3.317 2.297 3.317 1.297 0 2.086-1.205 2.086-3.345zm1-.028c0 2.338-1.423 3.727-3.199 3.727-1.817 0-3.17-1.304-3.17-3.642 0-2.353 1.409-3.756 3.199-3.756 1.804 0 3.17 1.318 3.17 3.67zM142.787 29.07v1.078h.043c.507-.581 1.409-1.12 2.367-1.12 1.113 0 2.086.68 2.086 2.353v4.492l1.015.227v.184h-2.89V36.1l.973-.227v-4.591c0-1.22-.69-1.673-1.522-1.673-.733 0-1.508.369-2.03.88v5.384l.973.227v.184h-2.89V36.1l1.015-.227v-6.065l-1.029-.128v-.198l1.804-.411h.085M153.554 34.98c0-.836.014-1.743.028-2.65-.916.184-2.34.553-3.228 1.36v.78c0 .992.607 1.403 1.34 1.403 1.028 0 1.677-.666 1.86-.892zm.93-3.684c0 1.02-.042 1.417-.042 3.954 0 .468.253.61.535.61.324 0 .634-.327.79-.596l.168.127c-.338.752-.718 1.007-1.254 1.007-.676 0-1.1-.383-1.127-1.077-.466.496-1.114 1.105-2.128 1.105-1.001 0-1.946-.453-1.946-1.786v-.864c.945-1.134 3.087-1.587 4.116-1.786v-.765c0-1.262-.55-1.842-1.607-1.842-.62 0-1.071.226-1.353.44-.24.523-.253 1.388-.253 1.388h-.466s-.31-.454-.366-1.134c.508-.553 1.438-1.049 2.635-1.049 1.311 0 2.298.581 2.298 2.268zM158.429 35.873L159.444 36.1 159.444 36.284 156.499 36.284 156.499 36.1 157.513 35.873 157.513 26.505 156.484 26.392 156.484 26.194 158.345 25.882 158.429 25.882 158.429 35.873M81.459 47.66v-4.846c-.31-.311-.903-.723-1.762-.723-1.593 0-2.326 1.36-2.326 3.416 0 2.21.846 3.033 2.255 3.033.733 0 1.395-.411 1.833-.88zm.916-9.083v9.977l1.014.198v.227h-1.776l-.098-.964h-.056c-.367.468-1.156 1.106-2.185 1.106-1.889 0-2.875-1.29-2.875-3.558 0-2.267 1.324-3.84 3.213-3.84.86 0 1.48.212 1.847.397V39.2l-1.03-.113v-.199l1.86-.311h.086zM85.403 44.982l3.876-.113v-.283c0-1.517-.634-2.523-1.804-2.523-1.099 0-1.959 1.034-2.072 2.92zm4.708 2.537c-.48.836-1.212 1.602-2.551 1.602-1.889 0-3.072-1.276-3.072-3.77 0-2.182 1.338-3.628 3.015-3.628 1.776 0 2.65 1.261 2.65 3.047v.539l-4.763-.03v.114c0 2.211.958 3.147 2.282 3.147 1.142 0 1.763-.567 2.284-1.149l.155.128zM98.58 49.121L95.061 40.398 94.117 40.171 94.117 39.987 97.231 39.987 97.231 40.171 96.147 40.398 98.988 47.689 99.031 47.689 101.773 40.398 100.687 40.171 100.687 39.987 103.196 39.987 103.196 40.171 102.237 40.398 98.96 49.121 98.58 49.121M107.444 47.675c0-.836.014-1.743.028-2.65-.916.184-2.34.552-3.227 1.36v.78c0 .992.606 1.403 1.338 1.403 1.03 0 1.678-.666 1.861-.893zm.93-3.685c0 1.02-.042 1.417-.042 3.954 0 .468.253.61.535.61.325 0 .635-.326.79-.596l.169.128c-.339.751-.719 1.006-1.255 1.006-.676 0-1.099-.383-1.127-1.077-.465.496-1.114 1.106-2.128 1.106-1.001 0-1.945-.454-1.945-1.786v-.865c.944-1.133 3.087-1.587 4.115-1.785v-.765c0-1.262-.55-1.843-1.606-1.843-.62 0-1.072.227-1.353.44-.24.524-.254 1.388-.254 1.388h-.465s-.31-.453-.367-1.133c.508-.553 1.438-1.05 2.636-1.05 1.31 0 2.297.582 2.297 2.268zM112.319 48.568L113.334 48.795 113.334 48.979 110.389 48.979 110.389 48.795 111.404 48.568 111.404 39.2 110.374 39.087 110.374 38.888 112.235 38.577 112.319 38.577 112.319 48.568M115.321 44.982l3.876-.113v-.283c0-1.517-.634-2.523-1.804-2.523-1.1 0-1.96 1.034-2.072 2.92zm4.707 2.537c-.479.836-1.212 1.602-2.55 1.602-1.889 0-3.073-1.276-3.073-3.77 0-2.182 1.339-3.628 3.016-3.628 1.776 0 2.65 1.261 2.65 3.047v.539l-4.764-.03v.114c0 2.211.958 3.147 2.283 3.147 1.142 0 1.762-.567 2.283-1.149l.155.128zM123.072 41.765v1.077h.042c.507-.58 1.41-1.12 2.368-1.12 1.113 0 2.085.681 2.085 2.353v4.493l1.015.227v.184h-2.889v-.184l.973-.227v-4.592c0-1.219-.691-1.672-1.523-1.672-.732 0-1.507.368-2.029.879v5.385l.972.227v.184h-2.889v-.184l1.015-.227v-6.065l-1.029-.128v-.199l1.804-.41h.085M134.148 42.503c-.169-.142-.577-.398-1.183-.398-1.48 0-2.439 1.233-2.439 3.36 0 2.153 1.1 3.046 2.439 3.046 1 0 1.69-.496 2.297-1.134l.183.142c-.423.822-1.24 1.602-2.607 1.602-1.96 0-3.228-1.22-3.228-3.628 0-2.353 1.65-3.77 3.425-3.77.916 0 1.776.368 2.199.836-.028.78-.339 1.233-.38 1.304h-.536c.014-.1.014-.85-.17-1.36M137.784 38.945c.338 0 .62.284.62.624s-.282.623-.62.623-.62-.283-.62-.623.282-.624.62-.624zm.521 9.623l1.015.227v.184h-2.931v-.184l1.014-.227v-6.065l-1.028-.128v-.199l1.846-.41h.084v6.802zM144.633 47.675c0-.836.014-1.743.028-2.65-.916.184-2.34.552-3.227 1.36v.78c0 .992.606 1.403 1.339 1.403 1.028 0 1.677-.666 1.86-.893zm.93-3.685c0 1.02-.042 1.417-.042 3.954 0 .468.254.61.535.61.325 0 .635-.326.79-.596l.169.128c-.339.751-.719 1.006-1.254 1.006-.677 0-1.1-.383-1.128-1.077-.465.496-1.114 1.106-2.128 1.106-1 0-1.945-.454-1.945-1.786v-.865c.944-1.133 3.087-1.587 4.115-1.785v-.765c0-1.262-.55-1.843-1.606-1.843-.62 0-1.072.227-1.353.44-.24.524-.254 1.388-.254 1.388h-.465s-.31-.453-.367-1.133c.508-.553 1.438-1.05 2.636-1.05 1.31 0 2.297.582 2.297 2.268z"
       id="path6" />
  </g>
</svg>
