<?xml version="1.0" encoding="UTF-8" standalone="no"?>
<!-- Generator: Adobe Illustrator 25.0.0, SVG Export Plug-In . SVG Version: 6.00 Build 0)  -->

<svg
   version="1.1"
   id="Capa_1"
   x="0px"
   y="0px"
   viewBox="0 0 525.6 209.5"
   style="enable-background:new 0 0 525.6 209.5;"
   xml:space="preserve"
   xmlns="http://www.w3.org/2000/svg"
   xmlns:svg="http://www.w3.org/2000/svg"><defs
   id="defs1359" />
<style
   type="text/css"
   id="style1262">
	.st0{fill:#E65218;}
	.st1{fill:#FFFFFF;}
	.st2{fill:#1B191C;}
</style>
<g
   id="g1342">
	<g
   id="g1272">
		<path
   class="st0"
   d="M183.9,25.6L183.9,25.6c-34.2-34.2-89.6-34.2-123.7,0L25.6,60.2c-34.2,34.2-34.2,89.6,0,123.7    s89.6,34.2,123.7,0l34.6-34.6C218.1,115.2,218.1,59.8,183.9,25.6"
   id="path1264" />
		<path
   class="st1"
   d="M138,132.1c-5.1,0-9-1.5-11.8-4.3c-2.8-2.9-4.2-6.9-4.2-11.9V83.5h9.8v30.1c0,3.2,0.9,5.7,2.6,7.4    c1.7,1.7,4.2,2.6,7.3,2.6c2.7,0,5.2-0.8,7.5-2.4c2.3-1.5,4.3-3.6,6-6.2l0.1-31.6h9.8v47.5h-9.8v-7.4l-1.2,1.3    c-1.9,2.1-4.3,3.8-7,5.1C144.3,131.4,141.3,132.1,138,132.1"
   id="path1266" />
		<polygon
   class="st1"
   points="109.5,128.7 109.5,85.3 109.5,83.6 93,83.6 85.6,83.6 77.3,83.6 77.3,84.4 83.4,85.8 69,123.3     68.8,123.3 53.5,85.8 60,84.4 60,83.6 38.6,83.6 38.6,84.4 44.2,85.8 63.8,132.2 68.4,132.2 86.7,85.3 100.5,85.3 100.5,128.7     93.6,130.3 93.6,131.2 116.4,131.2 116.4,130.3   "
   id="polygon1268" />
		<path
   class="st1"
   d="M104.9,72.8c2.9,0,5.3-2.4,5.3-5.3c0-2.9-2.4-5.3-5.3-5.3c-2.9,0-5.3,2.4-5.3,5.3    C99.6,70.4,102,72.8,104.9,72.8"
   id="path1270" />
	</g>
	
	
	
	
	
	
	
	
	
	
	
	
	
	
	
	
	
	
	
	
	
	
	
	
	
	
	
	
	
	
	
	
	
	
</g>
<g
   id="g1344">
</g>
<g
   id="g1346">
</g>
<g
   id="g1348">
</g>
<g
   id="g1350">
</g>
<g
   id="g1352">
</g>
<g
   id="g1354">
</g>
</svg>
