<?xml version="1.0" encoding="UTF-8" standalone="no"?>
<!-- Generator: Adobe Illustrator 25.0.0, SVG Export Plug-In . SVG Version: 6.00 Build 0)  -->

<svg
   version="1.1"
   id="Capa_1"
   x="0px"
   y="0px"
   viewBox="0 0 525.6 209.5"
   style="enable-background:new 0 0 525.6 209.5;"
   xml:space="preserve"
   xmlns="http://www.w3.org/2000/svg"
   xmlns:svg="http://www.w3.org/2000/svg"><defs
   id="defs99" />
<style
   type="text/css"
   id="style2">
	.st0{fill:#E65218;}
	.st1{fill:#FFFFFF;}
	.st2{fill:#1B191C;}
</style>
<g
   id="g82">
	<g
   id="g12"
   transform="translate(316)">
		<path
   class="st0"
   d="m 183.9,25.6 v 0 C 149.7,-8.6 94.3,-8.6 60.2,25.6 L 25.6,60.2 c -34.2,34.2 -34.2,89.6 0,123.7 34.2,34.1 89.6,34.2 123.7,0 l 34.6,-34.6 c 34.2,-34.1 34.2,-89.5 0,-123.7"
   id="path4" />
		<path
   class="st1"
   d="m 138,132.1 c -5.1,0 -9,-1.5 -11.8,-4.3 -2.8,-2.9 -4.2,-6.9 -4.2,-11.9 V 83.5 h 9.8 v 30.1 c 0,3.2 0.9,5.7 2.6,7.4 1.7,1.7 4.2,2.6 7.3,2.6 2.7,0 5.2,-0.8 7.5,-2.4 2.3,-1.5 4.3,-3.6 6,-6.2 l 0.1,-31.6 h 9.8 v 47.5 h -9.8 v -7.4 l -1.2,1.3 c -1.9,2.1 -4.3,3.8 -7,5.1 -2.8,1.5 -5.8,2.2 -9.1,2.2"
   id="path6" />
		<polygon
   class="st1"
   points="38.6,84.4 44.2,85.8 63.8,132.2 68.4,132.2 86.7,85.3 100.5,85.3 100.5,128.7 93.6,130.3 93.6,131.2 116.4,131.2 116.4,130.3 109.5,128.7 109.5,85.3 109.5,83.6 93,83.6 85.6,83.6 77.3,83.6 77.3,84.4 83.4,85.8 69,123.3 68.8,123.3 53.5,85.8 60,84.4 60,83.6 38.6,83.6 "
   id="polygon8" />
		<path
   class="st1"
   d="m 104.9,72.8 c 2.9,0 5.3,-2.4 5.3,-5.3 0,-2.9 -2.4,-5.3 -5.3,-5.3 -2.9,0 -5.3,2.4 -5.3,5.3 0,2.9 2.4,5.3 5.3,5.3"
   id="path10" />
	</g>
	<path
   class="st2"
   d="M 6.8,76.2 C 4.9,75.1 3.5,73.7 2.5,71.8 1.5,69.9 1,67.7 1,65.2 V 47.8 h 5.8 v 17.3 c 0,2.4 0.6,4.3 1.7,5.6 1.1,1.3 2.8,1.9 5,1.9 2.2,0 3.9,-0.6 5,-1.9 1.1,-1.3 1.7,-3.1 1.7,-5.6 V 47.8 H 26 v 17.4 c 0,2.5 -0.5,4.7 -1.5,6.6 -1,1.9 -2.4,3.4 -4.3,4.4 -1.9,1.1 -4.1,1.6 -6.7,1.6 -2.6,0 -4.8,-0.5 -6.7,-1.6 z"
   id="path14" />
	<path
   class="st2"
   d="m 32.6,54.1 h 5.3 v 3 c 1,-1 2.1,-1.8 3.5,-2.5 1.4,-0.7 2.9,-1 4.4,-1 2.5,0 4.4,0.7 5.8,2.1 1.4,1.4 2.1,3.3 2.1,5.6 v 16 H 48.4 V 62.7 c 0,-1.4 -0.4,-2.5 -1.1,-3.3 -0.7,-0.8 -1.8,-1.1 -3.2,-1.1 -1.2,0 -2.3,0.4 -3.4,1.1 -1.1,0.7 -2,1.7 -2.8,2.8 v 15.1 h -5.3 z"
   id="path16" />
	<path
   class="st2"
   d="m 60.1,50.1 c -0.7,-0.7 -1,-1.4 -1,-2.3 0,-0.9 0.3,-1.7 1,-2.3 0.7,-0.7 1.4,-1 2.3,-1 0.9,0 1.7,0.3 2.3,1 0.7,0.7 1,1.4 1,2.3 0,0.9 -0.3,1.7 -1,2.3 -0.7,0.7 -1.4,1 -2.3,1 -0.9,0 -1.6,-0.3 -2.3,-1 z m -0.3,4 h 5.3 v 23.2 h -5.3 z"
   id="path18" />
	<path
   class="st2"
   d="M 69.3,54.1 H 75 l 5.3,14.2 0.7,4 h 0.2 l 0.7,-4 5.3,-14.2 h 5.7 L 84,77.3 h -5.8 z"
   id="path20" />
	<path
   class="st2"
   d="m 100.5,76.3 c -1.8,-1 -3.1,-2.4 -4.1,-4.2 -1,-1.8 -1.4,-3.9 -1.4,-6.3 0,-2.4 0.5,-4.4 1.6,-6.3 1.1,-1.8 2.5,-3.3 4.2,-4.3 1.8,-1 3.7,-1.5 5.8,-1.5 2.2,0 4.2,0.5 5.9,1.4 1.7,0.9 3.1,2.3 4,4.1 1,1.8 1.4,3.9 1.4,6.4 v 1.6 h -17.8 c 0.1,1.9 0.8,3.4 2,4.5 1.2,1.1 2.7,1.6 4.6,1.6 1.6,0 2.9,-0.4 3.9,-1.1 1,-0.7 1.7,-1.7 2.2,-3 l 4.6,0.3 0.1,0.2 c -0.7,2.6 -2.1,4.6 -3.9,6 -1.9,1.4 -4.2,2.1 -7,2.1 -2.3,0 -4.3,-0.5 -6.1,-1.5 z m 12.4,-13 c -0.2,-1.7 -0.8,-3 -2,-3.9 -1.2,-0.9 -2.6,-1.4 -4.3,-1.4 -1.6,0 -3,0.5 -4.2,1.4 -1.2,0.9 -1.9,2.3 -2.2,3.9 z"
   id="path22" />
	<path
   class="st2"
   d="m 122.8,54.1 h 5.3 V 57 c 2,-2.2 4.2,-3.3 6.7,-3.3 0.8,0 1.5,0.1 2,0.4 l -0.7,4.3 -0.2,0.1 c -0.4,-0.1 -0.9,-0.1 -1.5,-0.1 -1.3,0 -2.5,0.4 -3.6,1.1 -1.1,0.7 -2,1.8 -2.7,3.2 v 14.7 h -5.3 z"
   id="path24" />
	<path
   class="st2"
   d="m 142.4,75.9 c -1.7,-1.3 -2.8,-3.1 -3.2,-5.4 l 0.1,-0.3 4.4,-0.7 c 0.3,1.3 0.9,2.2 1.7,2.9 0.8,0.7 2.1,1 3.7,1 1.1,0 2.1,-0.2 2.8,-0.7 0.8,-0.5 1.1,-1.2 1.1,-2 0,-0.9 -0.4,-1.6 -1.3,-2.1 -0.9,-0.5 -2.4,-1 -4.6,-1.6 -2.4,-0.6 -4.2,-1.4 -5.3,-2.5 -1.2,-1.1 -1.8,-2.5 -1.8,-4.3 0,-1.2 0.3,-2.3 1,-3.3 0.7,-1 1.6,-1.8 2.9,-2.3 1.2,-0.6 2.6,-0.9 4.2,-0.9 2.5,0 4.5,0.6 6.1,1.7 1.5,1.2 2.5,2.8 2.8,5 l -0.1,0.2 -4.5,0.6 c -0.2,-1.1 -0.7,-2 -1.5,-2.6 -0.8,-0.6 -1.7,-0.9 -2.9,-0.9 -0.9,0 -1.7,0.2 -2.3,0.6 -0.7,0.4 -1,0.9 -1,1.6 0,0.7 0.4,1.4 1.3,1.9 0.9,0.5 2.5,1.1 4.7,1.7 2.4,0.7 4.3,1.5 5.4,2.6 1.2,1.1 1.8,2.5 1.8,4.2 0,1.4 -0.4,2.7 -1.1,3.9 -0.7,1.2 -1.8,2.1 -3.2,2.7 -1.4,0.7 -3,1 -4.8,1 -2.5,-0.1 -4.7,-0.8 -6.4,-2 z"
   id="path26" />
	<path
   class="st2"
   d="m 163.4,50.1 c -0.7,-0.7 -1,-1.4 -1,-2.3 0,-0.9 0.3,-1.7 1,-2.3 0.7,-0.7 1.4,-1 2.3,-1 0.9,0 1.7,0.3 2.3,1 0.7,0.7 1,1.4 1,2.3 0,0.9 -0.3,1.7 -1,2.3 -0.7,0.7 -1.4,1 -2.3,1 -0.9,0 -1.7,-0.3 -2.3,-1 z m -0.3,4 h 5.3 v 23.2 h -5.3 z"
   id="path28" />
	<path
   class="st2"
   d="m 179,76.4 c -1.7,-1 -3,-2.4 -4.1,-4.2 -1,-1.8 -1.6,-4 -1.6,-6.5 0,-2.5 0.5,-4.7 1.5,-6.5 1,-1.8 2.3,-3.2 4,-4.2 1.7,-0.9 3.5,-1.4 5.6,-1.4 1.4,0 2.7,0.2 4,0.7 1.2,0.5 2.3,1.1 3.2,2 V 43.4 h 5.3 v 33.9 h -5.3 v -2.5 c -1.9,2 -4.3,3 -7.3,3 -1.8,0 -3.6,-0.5 -5.3,-1.4 z m 10.8,-4.8 c 1.2,-1.1 1.8,-2.5 1.8,-4.1 V 64 c 0,-1.6 -0.6,-3 -1.8,-4.2 -1.2,-1.1 -2.7,-1.7 -4.4,-1.7 -1.9,0 -3.5,0.6 -4.7,1.9 -1.2,1.3 -1.9,3.2 -1.9,5.6 0,2.4 0.6,4.3 1.9,5.6 1.3,1.3 2.8,1.9 4.8,1.9 1.6,0.1 3.1,-0.4 4.3,-1.5 z"
   id="path30" />
	<path
   class="st2"
   d="m 204.3,75.9 c -1.4,-1.3 -2.1,-2.9 -2.1,-5 0,-2.1 0.7,-3.8 2.2,-5.1 1.5,-1.3 3.4,-2 5.8,-2.3 l 6.7,-0.7 v -1.3 c 0,-1.2 -0.4,-2.1 -1.2,-2.8 -0.8,-0.6 -1.9,-1 -3.3,-1 -1.2,0 -2.2,0.3 -2.9,0.9 -0.8,0.6 -1.2,1.5 -1.5,2.6 l -4.6,-0.2 -0.2,-0.2 c 0.4,-2.4 1.5,-4.2 3.3,-5.4 1.7,-1.3 3.8,-1.9 6.2,-1.9 2.8,0 5.1,0.7 6.8,2.1 1.7,1.4 2.6,3.3 2.6,5.8 v 9.5 c 0,1.5 0.6,2.3 1.9,2.3 0.3,0 0.6,0 1,-0.1 l 0.1,0.1 V 77 c -1,0.3 -1.9,0.5 -2.9,0.5 -1.1,0 -2.1,-0.3 -3,-0.8 -0.9,-0.5 -1.5,-1.4 -1.9,-2.6 h -0.1 c -1,1.1 -2.1,2 -3.4,2.6 -1.3,0.7 -2.7,1 -4.2,1 -2.2,0.1 -3.9,-0.5 -5.3,-1.8 z m 9.6,-3.3 c 1,-0.6 2,-1.5 3,-2.6 v -3.4 l -6,0.7 c -1.2,0.2 -2.1,0.5 -2.7,1.1 -0.6,0.6 -0.9,1.3 -0.9,2.2 0,0.9 0.3,1.6 0.9,2.1 0.6,0.5 1.4,0.7 2.4,0.7 1.2,0.1 2.3,-0.2 3.3,-0.8 z"
   id="path32" />
	<path
   class="st2"
   d="m 233.1,76.4 c -1.7,-1 -3,-2.4 -4.1,-4.2 -1,-1.8 -1.6,-4 -1.6,-6.5 0,-2.5 0.5,-4.7 1.5,-6.5 1,-1.8 2.3,-3.2 4,-4.2 1.7,-0.9 3.5,-1.4 5.6,-1.4 1.4,0 2.7,0.2 4,0.7 1.2,0.5 2.3,1.1 3.2,2 V 43.4 h 5.3 v 33.9 h -5.3 v -2.5 c -1.9,2 -4.3,3 -7.3,3 -1.9,0 -3.6,-0.5 -5.3,-1.4 z m 10.8,-4.8 c 1.2,-1.1 1.8,-2.5 1.8,-4.1 V 64 c 0,-1.6 -0.6,-3 -1.8,-4.2 -1.2,-1.1 -2.7,-1.7 -4.4,-1.7 -1.9,0 -3.5,0.6 -4.7,1.9 -1.2,1.3 -1.9,3.2 -1.9,5.6 0,2.4 0.6,4.3 1.9,5.6 1.3,1.3 2.8,1.9 4.8,1.9 1.6,0.1 3,-0.4 4.3,-1.5 z"
   id="path34" />
	<path
   class="st2"
   d="m 0.2,90.5 v -0.6 h 10.7 v 0.6 l -3.8,0.8 v 27.1 l 3.8,0.8 v 0.6 H 0.2 v -0.6 L 4,118.4 V 91.3 Z"
   id="path36" />
	<path
   class="st2"
   d="m 21.1,95.3 v 3.5 h 0.1 c 1.7,-1.9 4.6,-3.7 7.8,-3.7 3.7,0 6.9,2.2 6.9,7.7 v 14.7 l 3.3,0.7 v 0.6 h -9.5 v -0.6 l 3.2,-0.7 v -15.1 c 0,-4 -2.3,-5.5 -5,-5.5 -2.4,0 -5,1.2 -6.7,2.9 v 17.7 l 3.2,0.7 v 0.6 h -9.5 v -0.6 l 3.3,-0.7 V 97.7 l -3.4,-0.4 v -0.7 l 5.9,-1.3 z"
   id="path38" />
	<path
   class="st2"
   d="m 42,96.1 3.3,-0.5 2,-7 h 0.9 v 7 h 6 v 1.3 h -6 v 19.4 c 1,1 2.5,1.5 4,1.5 1.3,0 2.7,-0.5 3.9,-1.3 l 0.5,0.7 c -1.8,1.4 -3.8,2.2 -5.7,2.2 -2.2,0 -4.2,-0.8 -5.6,-2.5 v -20 H 42 Z"
   id="path40" />
	<path
   class="st2"
   d="m 77.5,114.2 c -1.6,2.7 -4,5.2 -8.4,5.2 -6.2,0 -10.1,-4.2 -10.1,-12.4 0,-7.2 4.4,-11.9 9.9,-11.9 5.9,0 8.7,4.1 8.7,10 v 1.8 l -15.7,-0.1 v 0.4 c 0,7.2 3.2,10.3 7.5,10.3 3.8,0 5.8,-1.9 7.5,-3.8 z M 62,105.8 74.8,105.4 v -0.9 c 0,-5 -2.1,-8.3 -5.9,-8.3 -3.7,0.1 -6.5,3.5 -6.9,9.6 z"
   id="path42" />
	<path
   class="st2"
   d="m 95.3,100.8 c 0,0 -0.3,-2.8 -0.9,-3.9 -3.1,0.3 -5.9,2.9 -6.7,3.9 v 16.8 l 3.9,0.7 v 0.6 H 81.4 v -0.6 l 3.3,-0.7 V 97.7 l -3.4,-0.4 v -0.7 l 5.9,-1.3 h 0.3 v 4.3 h 0.1 c 1.7,-2.6 4.6,-4.5 7.9,-4.5 0.7,0 1.3,0 2,0.2 0,3.3 -0.8,5.4 -0.8,5.4 h -1.4 z"
   id="path44" />
	<path
   class="st2"
   d="m 106.6,95.3 v 3.5 h 0.1 c 1.7,-1.9 4.6,-3.7 7.8,-3.7 3.7,0 6.9,2.2 6.9,7.7 v 14.7 l 3.3,0.7 v 0.6 h -9.5 v -0.6 l 3.2,-0.7 v -15.1 c 0,-4 -2.3,-5.5 -5,-5.5 -2.4,0 -5,1.2 -6.7,2.9 v 17.7 l 3.2,0.7 v 0.6 h -9.5 v -0.6 l 3.3,-0.7 V 97.7 l -3.4,-0.4 v -0.7 l 5.9,-1.3 z"
   id="path46" />
	<path
   class="st2"
   d="m 145.1,102.6 c 0,3.3 -0.1,4.6 -0.1,13 0,1.5 0.8,2 1.8,2 1.1,0 2.1,-1.1 2.6,-2 l 0.6,0.4 c -1.1,2.5 -2.4,3.3 -4.1,3.3 -2.2,0 -3.6,-1.3 -3.7,-3.5 -1.5,1.6 -3.7,3.6 -7,3.6 -3.3,0 -6.4,-1.5 -6.4,-5.9 v -2.8 c 3.1,-3.7 10.2,-5.2 13.6,-5.9 v -2.5 c 0,-4.1 -1.8,-6 -5.3,-6 -2,0 -3.5,0.7 -4.5,1.4 -0.8,1.7 -0.8,4.6 -0.8,4.6 h -1.5 c 0,0 -1,-1.5 -1.2,-3.7 1.7,-1.8 4.7,-3.4 8.7,-3.4 4.1,0 7.3,1.9 7.3,7.4 z m -3,12.1 c 0,-2.7 0,-5.7 0.1,-8.7 -3,0.6 -7.7,1.8 -10.6,4.5 v 2.6 c 0,3.3 2,4.6 4.4,4.6 3.3,-0.1 5.5,-2.3 6.1,-3 z"
   id="path48" />
	<path
   class="st2"
   d="m 167,97.7 c -0.6,-0.5 -1.9,-1.3 -3.9,-1.3 -4.9,0 -8,4 -8,11 0,7.1 3.6,10 8,10 3.3,0 5.6,-1.6 7.6,-3.7 l 0.6,0.5 c -1.4,2.7 -4.1,5.2 -8.6,5.2 -6.5,0 -10.6,-4 -10.6,-11.9 0,-7.7 5.4,-12.4 11.3,-12.4 3,0 5.9,1.2 7.2,2.7 -0.1,2.6 -1.1,4 -1.3,4.3 h -1.8 c 0.2,-0.3 0.2,-2.7 -0.5,-4.4 z"
   id="path50" />
	<path
   class="st2"
   d="m 180.7,117.6 3.3,0.7 v 0.6 h -9.7 v -0.6 l 3.3,-0.7 V 97.7 l -3.4,-0.4 v -0.7 l 6.1,-1.3 h 0.3 v 22.3 z M 179,86 c 1.1,0 2,0.9 2,2 0,1.1 -0.9,2 -2,2 -1.1,0 -2,-0.9 -2,-2 0,-1 0.9,-2 2,-2 z"
   id="path52" />
	<path
   class="st2"
   d="m 208.7,107.2 c 0,7.7 -4.7,12.2 -10.5,12.2 -6,0 -10.5,-4.3 -10.5,-11.9 0,-7.7 4.6,-12.3 10.5,-12.3 6,0 10.5,4.3 10.5,12 z m -3.3,0.1 c 0,-7.1 -3.2,-11 -7.5,-11 -4.4,0 -7,3.9 -7,11.1 0,7 3.2,10.9 7.6,10.9 4.3,-0.1 6.9,-4 6.9,-11 z"
   id="path54" />
	<path
   class="st2"
   d="m 218.7,95.3 v 3.5 h 0.1 c 1.7,-1.9 4.6,-3.7 7.8,-3.7 3.7,0 6.9,2.2 6.9,7.7 v 14.7 l 3.3,0.7 v 0.6 h -9.5 v -0.6 l 3.2,-0.7 v -15.1 c 0,-4 -2.3,-5.5 -5,-5.5 -2.4,0 -5,1.2 -6.7,2.9 v 17.7 l 3.2,0.7 v 0.6 h -9.5 v -0.6 l 3.3,-0.7 V 97.7 l -3.4,-0.4 v -0.7 l 5.9,-1.3 z"
   id="path56" />
	<path
   class="st2"
   d="m 257.2,102.6 c 0,3.3 -0.1,4.6 -0.1,13 0,1.5 0.8,2 1.8,2 1.1,0 2.1,-1.1 2.6,-2 l 0.6,0.4 c -1.1,2.5 -2.4,3.3 -4.1,3.3 -2.2,0 -3.6,-1.3 -3.7,-3.5 -1.5,1.6 -3.7,3.6 -7,3.6 -3.3,0 -6.4,-1.5 -6.4,-5.9 v -2.8 c 3.1,-3.7 10.2,-5.2 13.6,-5.9 v -2.5 c 0,-4.1 -1.8,-6 -5.3,-6 -2,0 -3.5,0.7 -4.5,1.4 -0.8,1.7 -0.8,4.6 -0.8,4.6 h -1.5 c 0,0 -1,-1.5 -1.2,-3.7 1.7,-1.8 4.7,-3.4 8.7,-3.4 4.1,0 7.3,1.9 7.3,7.4 z m -3.1,12.1 c 0,-2.7 0,-5.7 0.1,-8.7 -3,0.6 -7.7,1.8 -10.6,4.5 v 2.6 c 0,3.3 2,4.6 4.4,4.6 3.4,-0.1 5.5,-2.3 6.1,-3 z"
   id="path58" />
	<path
   class="st2"
   d="m 270.2,117.6 3.3,0.7 v 0.6 h -9.7 v -0.6 l 3.3,-0.7 V 86.9 l -3.4,-0.4 v -0.7 l 6.1,-1 h 0.3 v 32.8 z"
   id="path60" />
	<path
   class="st2"
   d="m 19.5,126.5 v 32.7 l 3.3,0.7 v 0.7 H 17 l -0.3,-3.2 h -0.2 c -1.2,1.5 -3.8,3.6 -7.2,3.6 -6.2,0 -9.5,-4.2 -9.5,-11.7 0,-7.4 4.4,-12.6 10.6,-12.6 2.8,0 4.9,0.7 6.1,1.3 v -9.6 L 13.1,128 v -0.7 l 6.1,-1 h 0.3 z m -3,29.7 v -15.9 c -1,-1 -3,-2.4 -5.8,-2.4 -5.2,0 -7.7,4.5 -7.7,11.2 0,7.2 2.8,9.9 7.4,9.9 2.5,0.1 4.7,-1.2 6.1,-2.8 z"
   id="path62" />
	<path
   class="st2"
   d="m 45,155.8 c -1.6,2.7 -4,5.2 -8.4,5.2 -6.2,0 -10.1,-4.2 -10.1,-12.4 0,-7.2 4.4,-11.9 9.9,-11.9 5.9,0 8.7,4.1 8.7,10 v 1.8 l -15.7,-0.1 v 0.4 c 0,7.2 3.2,10.3 7.5,10.3 3.8,0 5.8,-1.9 7.5,-3.8 z m -15.5,-8.3 12.8,-0.4 v -0.9 c 0,-5 -2.1,-8.3 -5.9,-8.3 -3.7,0 -6.5,3.4 -6.9,9.6 z"
   id="path64" />
	<path
   class="st2"
   d="m 72.9,161 -11.6,-28.6 -3.1,-0.7 v -0.6 h 10.3 v 0.6 l -3.6,0.7 9.4,23.9 h 0.1 l 9,-23.9 -3.6,-0.7 v -0.6 h 8.3 v 0.6 l -3.2,0.7 -10.7,28.6 z"
   id="path66" />
	<path
   class="st2"
   d="m 105.2,144.2 c 0,3.3 -0.1,4.6 -0.1,13 0,1.5 0.8,2 1.8,2 1.1,0 2.1,-1.1 2.6,-2 l 0.6,0.4 c -1.1,2.5 -2.4,3.3 -4.1,3.3 -2.2,0 -3.6,-1.3 -3.7,-3.5 -1.5,1.6 -3.7,3.6 -7,3.6 -3.3,0 -6.4,-1.5 -6.4,-5.9 v -2.8 c 3.1,-3.7 10.2,-5.2 13.6,-5.9 V 144 c 0,-4.1 -1.8,-6 -5.3,-6 -2,0 -3.5,0.7 -4.5,1.4 -0.8,1.7 -0.8,4.6 -0.8,4.6 h -1.5 c 0,0 -1,-1.5 -1.2,-3.7 1.7,-1.8 4.7,-3.4 8.7,-3.4 4.1,-0.1 7.3,1.8 7.3,7.3 z m -3,12.1 c 0,-2.7 0,-5.7 0.1,-8.7 -3,0.6 -7.7,1.8 -10.6,4.5 v 2.6 c 0,3.3 2,4.6 4.4,4.6 3.3,-0.1 5.5,-2.3 6.1,-3 z"
   id="path68" />
	<path
   class="st2"
   d="m 118.2,159.2 3.3,0.7 v 0.6 h -9.7 v -0.6 l 3.3,-0.7 v -30.7 l -3.4,-0.4 v -0.7 l 6.1,-1 h 0.3 v 32.8 z"
   id="path70" />
	<path
   class="st2"
   d="m 143.6,155.8 c -1.6,2.7 -4,5.2 -8.4,5.2 -6.2,0 -10.1,-4.2 -10.1,-12.4 0,-7.2 4.4,-11.9 9.9,-11.9 5.9,0 8.7,4.1 8.7,10 v 1.8 L 128,148.4 v 0.4 c 0,7.2 3.2,10.3 7.5,10.3 3.8,0 5.8,-1.9 7.5,-3.8 z m -15.5,-8.3 12.8,-0.4 v -0.9 c 0,-5 -2.1,-8.3 -5.9,-8.3 -3.7,0 -6.5,3.4 -6.9,9.6 z"
   id="path72" />
	<path
   class="st2"
   d="m 153.7,136.9 v 3.5 h 0.1 c 1.7,-1.9 4.6,-3.7 7.8,-3.7 3.7,0 6.9,2.2 6.9,7.7 v 14.7 l 3.3,0.7 v 0.6 h -9.5 v -0.6 l 3.2,-0.7 V 144 c 0,-4 -2.3,-5.5 -5,-5.5 -2.4,0 -5,1.2 -6.7,2.9 v 17.7 l 3.2,0.7 v 0.6 h -9.5 v -0.6 l 3.3,-0.7 v -19.9 l -3.4,-0.4 v -0.7 l 5.9,-1.3 h 0.4 z"
   id="path74" />
	<path
   class="st2"
   d="m 190.2,139.3 c -0.6,-0.5 -1.9,-1.3 -3.9,-1.3 -4.9,0 -8,4 -8,11 0,7.1 3.6,10 8,10 3.3,0 5.6,-1.6 7.6,-3.7 l 0.6,0.5 c -1.4,2.7 -4.1,5.2 -8.6,5.2 -6.5,0 -10.6,-4 -10.6,-11.9 0,-7.7 5.4,-12.4 11.3,-12.4 3,0 5.9,1.2 7.2,2.7 -0.1,2.6 -1.1,4 -1.3,4.3 h -1.8 c 0.1,-0.2 0.1,-2.7 -0.5,-4.4 z"
   id="path76" />
	<path
   class="st2"
   d="m 203.9,159.2 3.3,0.7 v 0.6 h -9.7 v -0.6 l 3.3,-0.7 v -19.9 l -3.4,-0.4 v -0.7 l 6.1,-1.3 h 0.3 v 22.3 z m -1.7,-31.5 c 1.1,0 2,0.9 2,2 0,1.1 -0.9,2 -2,2 -1.1,0 -2,-0.9 -2,-2 0,-1.1 0.8,-2 2,-2 z"
   id="path78" />
	<path
   class="st2"
   d="m 227.8,144.2 c 0,3.3 -0.1,4.6 -0.1,13 0,1.5 0.8,2 1.8,2 1.1,0 2.1,-1.1 2.6,-2 l 0.6,0.4 c -1.1,2.5 -2.4,3.3 -4.1,3.3 -2.2,0 -3.6,-1.3 -3.7,-3.5 -1.5,1.6 -3.7,3.6 -7,3.6 -3.3,0 -6.4,-1.5 -6.4,-5.9 v -2.8 c 3.1,-3.7 10.2,-5.2 13.6,-5.9 V 144 c 0,-4.1 -1.8,-6 -5.3,-6 -2,0 -3.5,0.7 -4.5,1.4 -0.8,1.7 -0.8,4.6 -0.8,4.6 H 213 c 0,0 -1,-1.5 -1.2,-3.7 1.7,-1.8 4.7,-3.4 8.7,-3.4 4.1,-0.1 7.3,1.8 7.3,7.3 z m -3.1,12.1 c 0,-2.7 0,-5.7 0.1,-8.7 -3,0.6 -7.7,1.8 -10.6,4.5 v 2.6 c 0,3.3 2,4.6 4.4,4.6 3.4,-0.1 5.5,-2.3 6.1,-3 z"
   id="path80" />
</g>
<g
   id="g84">
</g>
<g
   id="g86">
</g>
<g
   id="g88">
</g>
<g
   id="g90">
</g>
<g
   id="g92">
</g>
<g
   id="g94">
</g>
</svg>
