<?xml version="1.0" encoding="UTF-8" standalone="no"?>
<svg
   viewBox="0 0 216.34 281.99"
   version="1.1"
   id="svg13"
   sodipodi:docname="sello-viu.svg"
   inkscape:version="1.1.2 (0a00cf5339, 2022-02-04)"
   xmlns:inkscape="http://www.inkscape.org/namespaces/inkscape"
   xmlns:sodipodi="http://sodipodi.sourceforge.net/DTD/sodipodi-0.dtd"
   xmlns="http://www.w3.org/2000/svg"
   xmlns:svg="http://www.w3.org/2000/svg">
  <sodipodi:namedview
     id="namedview15"
     pagecolor="#ffffff"
     bordercolor="#666666"
     borderopacity="1.0"
     inkscape:pageshadow="2"
     inkscape:pageopacity="0.0"
     inkscape:pagecheckerboard="0"
     showgrid="false"
     inkscape:zoom="2.5497359"
     inkscape:cx="122.56171"
     inkscape:cy="155.8985"
     inkscape:window-width="2560"
     inkscape:window-height="1323"
     inkscape:window-x="0"
     inkscape:window-y="40"
     inkscape:window-maximized="1"
     inkscape:current-layer="svg13" />
  <defs
     id="defs4">
    <style
       id="style2">.cls-1{fill:#cfd1d2}</style>
  </defs>
  <g
     id="Capa_1"
     data-name="Capa 1"
     style="fill:#ffffff">
    <path
       class="cls-1"
       d="M117 72.58v-.76c0-5.74-2.77-10.56-6.55-12l-2.34-5.89-2.33 5.89c-3.78 1.49-6.56 6.31-6.56 12v.76a53.46 53.46 0 00-44.08 46.34.27.27 0 00.53.11C59 108.24 70.55 101.33 83.08 105c8.47 2.45 14.5 11.92 14.5 20.12 0 17.47-11.33 32.62-25.57 38.81a.31.31 0 00.16.6 42.75 42.75 0 0036-38.27 42.75 42.75 0 0036 38.27.31.31 0 00.16-.6c-14.23-6.19-25.57-21.34-25.57-38.81 0-8.2 6-17.67 14.51-20.12 12.52-3.62 24 3.29 27.31 14.08a.28.28 0 00.54-.11A53.47 53.47 0 00117 72.58m-8.83-60.92l2.08 7.16 7.16 2.08-7.16 2.08-2.08 7.16-2.08-7.16-7.16-2.08 7.16-2.08 2.08-7.16z"
       id="path6"
       style="fill:#ffffff" />
    <path
       class="cls-1"
       d="M108.17 2.34A105.83 105.83 0 01214 108.17v65.65a105.83 105.83 0 01-211.66 0v-65.65A105.83 105.83 0 01108.17 2.34m0-2.34A108.3 108.3 0 000 108.17v65.65a108.17 108.17 0 00216.34 0v-65.65A108.29 108.29 0 00108.17 0"
       id="path8"
       style="fill:#ffffff" />
    <path
       class="cls-1"
       d="M149.92 21.16l-1.08 14.47 1 1-.13.26-5-2.41.13-.26 1.64.3.37-4-4.61-2.25-3 2.76 1.23 1.11-.12.26-3.6-1.75.13-.26 1.43.19 10.63-9.63zm-2.36 2.18l-4.68 4.41 4.14 2 .62-6.38zM157.73 43l4-14-.81-1.21.18-.23 4.36 3.44-.18.22-1.54-.64-3.22 10.6.06.05 9.42-5.72-1-1.34.18-.23 3.14 2.47-.18.23-1.4-.53-12.32 7.46zm20.99.6l.24-.2 3.53 4.14-.24.2-1.37-.91-9.51 8.09.68 1.51-.23.2-3.53-4.15.23-.2 1.38.92 9.51-8.09zm14.67 22.29l-.39-1.61.27-.15 2 3.66-.27.15-1.16-1.17-9 5c-2.17.33-4-.56-5.3-3-1.2-2.17-1.43-4.51 0-6.17l9.19-5.08-.37-1.61.27-.15 2.63 4.77-.27.15-1.16-1.17-8.02 4.49a3.07 3.07 0 00-1.25 4.49c1.1 2 3.09 2.83 4.9 1.83zM199.16 78l.28-.07.86 3.4-8.81 6.67v.06l10.89 1.51.85 3.36-.23.07-.83-1.43L190 94.64v1.65l-.28.07-1.32-5.19.28-.07.83 1.4 9.69-2.5v-.08a13.54 13.54 0 01-1.57-.15l-9.25-1.31-.19-.67 7.39-5.79a7.51 7.51 0 011.42-.8v-.08l-9.77 2.48-.05 1.65-.28.07-1-3.93.28-.07.83 1.43 12.14-3.08zm-8.96 43.39c0-3.65 2.46-6.42 7-6.42 4.75 0 7.41 3 7.41 6.87a28.08 28.08 0 01-.49 3.69h-.85a11.74 11.74 0 00-2.44.28l-.18-.49a5.93 5.93 0 012.76-1.85 4.65 4.65 0 00.44-2c0-2.43-2.29-4.08-6.38-4.08-3.94 0-5.92 1.92-5.92 4.34A4.8 4.8 0 00194 126l-.16.31a5 5 0 01-3.64-4.92zm13.92 12.86h.3v10.64h-.7a20.69 20.69 0 00-2.87.23l-.1-.41a9.39 9.39 0 012.89-1.51v-5.1h-5.74l.13 4.65 1.13.41v.43h-3.22v-.39l1.14-.45.12-4.65h-6v5.57a10.67 10.67 0 013.06 1.51l-.1.41a23.68 23.68 0 00-2.89-.23h-.85v-11.11h.31l.45 1.59h12.49zm0 19.64h.3v5.44h-.3l-.46-1.59h-12.47v5a8.9 8.9 0 013.1 1.52l-.1.39s-1.74-.2-3-.2h-.74v-10.56h.31l.45 1.59h12.49zm.13 19.47h.31l-.82 10.6-.7-.05a21.63 21.63 0 00-2.88 0l-.07-.41a9.61 9.61 0 013-1.29l.39-5.07-5.72-.44-.23 4.64 1.1.49v.43l-3.21-.25v-.38l1.17-.36.48-4.63-6-.45-.43 5.54a10.76 10.76 0 012.93 1.74l-.13.4a23.61 23.61 0 00-2.86-.45l-.85-.06.85-11.07h.31l.33 1.62 12.45.95zm-19.69 29.94l.87-2.82a3.65 3.65 0 012.42-1.07l4.57-.51.73-2.35-5.21-1.61-.91 1.4-.3-.09 1.61-5.2.3.1v1.65l11.93 3.68.91-1.38.29.09-1.77 5.63c-.9 2.92-2.64 4.77-5.18 4a3.56 3.56 0 01-2.58-3.63h-.11l-3.43.47c-3.09.41-3.84 1.78-3.84 1.78zm9.28-6.54l-1 3.25a3.49 3.49 0 002.61 2.54c1.95.6 3.24-.15 3.83-2.06l.58-1.87zm-18.63 23.9l1.49-2.55a3.71 3.71 0 012.61-.48l4.56.55 1.24-2.13-4.7-2.76-1.2 1.16-.27-.15 2.75-4.7.27.16-.41 1.6 10.77 6.32 1.19-1.14.27.15-3 5.08c-1.54 2.64-3.66 4-6 2.7a3.56 3.56 0 01-1.68-4.13l-.11-.06-3.44-.32c-3.1-.31-4.14.86-4.14.86zm10.53-4.24l-1.74 2.93a3.47 3.47 0 002 3.07c1.76 1 3.19.59 4.2-1.13l1-1.69zM181 235.2l.23.2-3.61 4.08-.23-.21.71-1.49-9.34-8.28-1.4.89-.23-.21 3.61-4.07.23.21-.71 1.49 9.34 8.28zm-11.12 11.68l.17.24-2.83 2.06-9.45-5.71h-.05l2.64 10.67-2.81 2-.16-.23 1-1.3-7.39-10.08-1.56.57-.16-.23 4.33-3.16.17.24-1 1.29 5.92 8.15h.07a13.87 13.87 0 01-.45-1.52l-2.21-9.08.54-.42 8.13 4.73a7.53 7.53 0 011.29 1l.07-.05-5.93-8.15-1.55.57-.17-.23 3.28-2.39.17.24-1 1.3 7.37 10.13zM141.43 264l-9.81-10.69-1.44.06-.1-.27 5.14-2 .1.27-1.34 1 2.68 3 4.8-1.83v-4l-1.65.14-.1-.27 3.73-1.42.1.27-1.11.91-.24 14.34zm0-3.21v-6.43l-4.3 1.64 4.23 4.82zm-28.16 8.6v.31l-5.44.14v-.31l1.58-.5-.31-12.48-1.6-.42v-.31l5.44-.14v.32l-1.58.5.31 12.49zm-25.22-2.01v.29l-4-.75.06-.28 1.62-.16 2.45-13.05.84.16 6.24 12.85 2-10.55c-.13-.07-1.64-.79-1.48-.74l.05-.28 4 .75v.28l-1.65.15-2.32 12.32 1.48.74v.28l-3.33-.62-5.51-11.48-1.76 9.36zm-12.67-7.21l.3.26a22 22 0 00-1.35 2.44l-.33.72-10.6-4.9.33-.71a21.79 21.79 0 001-2.61l.39.07a9.06 9.06 0 01.18 3.26L68 260l5.22-11.32-1.4-1.14.13-.28 5.24 2.41-.13.28-1.78-.32-5.22 11.27 2.72 1.26a8.92 8.92 0 012.6-1.99zm-20.81-7.25l-.19.24-8.38-6.54.43-.55a21.15 21.15 0 001.59-2.4l.38.17a9.46 9.46 0 01-.59 3.2l4 3.13 3.53-4.52-3.74-2.76-1 .65-.34-.27 2-2.54.31.24-.35 1.17 3.59 3 3.69-4.74-4.38-3.42a10.86 10.86 0 01-3.12 1.44l-.26-.33a24.3 24.3 0 002-2.14l.53-.67 8.73 6.83-.19.24-1.53-.62-7.68 9.85zm-16.48-14.4l-.24.19-3.46-4.2.24-.2 1.36.94 9.63-7.93-3.15-3.82a8.89 8.89 0 01-3.36.79l-.17-.37a30 30 0 002.47-1.77l.57-.47 6.69 8.12-.24.19-1.36-.93-9.64 7.94zm-12.35-16.75l-.27.14-2.47-4.83.28-.15 1.13 1.21 11.07-5.74-2.31-4.4a8.87 8.87 0 01-3.46.07l-.08-.39s1.63-.62 2.78-1.22l.66-.34 4.84 9.34-.27.14-1.14-1.2-11.09 5.75zm-8.61-19.01l-.3.08-2.77-10.27.68-.18a21.65 21.65 0 002.71-1l.21.36a9.57 9.57 0 01-2.4 2.21l1.32 4.92 5.55-1.49L20.8 193l-1.2-.1-.11-.42 3.11-.83.1.37-1 .73 1.08 4.52 5.81-1.56-1.45-5.37a10.84 10.84 0 01-3.34-.67v-.42a24.7 24.7 0 002.85-.53l.82-.22 2.88 10.72-.29.08-.86-1.41-12.06 3.24zm-5.05-32.71l1.11-.05a10.32 10.32 0 002-.37l.22.44a4.45 4.45 0 01-2.5 2 5.73 5.73 0 00-.42 2.4c.11 2.73 2.69 4.38 6.78 4.22s6.19-2.27 6.09-4.74a4.84 4.84 0 00-.48-2l-4.49.18-.41 1.2h-.29l-.17-4.38h.28l.5 1 4.45-.18.12-.57h.29a13.92 13.92 0 011 4.79c.15 3.75-2 7-6.63 7.21-4.93.2-7.64-2.94-7.79-6.83-.04-1.57.38-3.37.34-4.32zm.15-9.66h-.31v-10.64h.7a21.41 21.41 0 002.87-.22l.1.41a9.5 9.5 0 01-2.89 1.5v5.1h5.74l-.12-4.65-1.14-.41v-.42h3.22v.38l-1.13.45-.13 4.65h6V151a10.69 10.69 0 01-3-1.51l.1-.41a24.73 24.73 0 002.89.22h.84v11.11h-.31l-.45-1.59H12.68zm-.02-29h-.29v-4h.29l.45 1.57h13.27v.86l-11.47 8.5h10.73c0-.14.48-1.75.46-1.59h.28v4.05h-.28l-.46-1.59H12.66l-.45 1.59h-.29v-3.38l10.26-7.54h-9.52zm3.38-12.15l-.1.39a21.4 21.4 0 00-2.79-.2h-.78v-11.68h.78a20.4 20.4 0 002.79-.21l.1.39a9.16 9.16 0 01-2.89 1.53v3h12.47l.45-1.75h.31v5.77h-.31l-.45-1.75H12.7v3a8.71 8.71 0 012.89 1.51zm-2.67-21.11h-.31l.8-5.38h.31l.22 1.64 12.35 1.83.68-1.5h.31l-.8 5.38h-.31L26 98.46l-12.4-1.84zm4.75-22.04l14.5-.51.88-1.13.27.1-1.85 5.18-.27-.1.12-1.63-4 .07-1.73 4.84 3.07 2.63 1-1.34.28.1-1.43 3.7-.27-.1v-1.44L17.53 77zm2.43 2.1l4.9 4.17L26.54 78l-6.42.09zm11.58-27.33l-.24-.2 6.86-8.14.54.45a21.32 21.32 0 002.33 1.68L41 45a9.35 9.35 0 01-3.18-.71l-3.28 3.9 4.39 3.7 2.89-3.64-.6-1 .27-.33L44 49l-.25.3-1.16-.39-3.09 3.48 4.6 3.87L47.63 52a10.56 10.56 0 01-1.36-3.12l.34-.25a24 24 0 002.07 2l.64.54-7.15 8.5-.24-.2.68-1.47-9.56-8zM54 44.48a14.09 14.09 0 00-1.77-1.85l.26-.5a6.58 6.58 0 013.46 1.41 4.57 4.57 0 002.27-.88c1.57-1.2 1.77-2.75.71-4.15a2.68 2.68 0 00-3.2-.8l-2.47.76A3.66 3.66 0 0149 37.38c-1.64-2.15-.49-4.47 1.48-6a22 22 0 013.56-1.89l.45.6a11.33 11.33 0 001.62 1.69l-.24.42a5.69 5.69 0 01-3.1-1 3.85 3.85 0 00-1.86.82c-1.44 1.1-1.57 2.45-.79 3.46a2.32 2.32 0 002.85.68l2.36-.73c2.27-.72 3.84-.24 5 1.27 1.29 1.7 1.16 4.47-1.37 6.4a10.85 10.85 0 01-4.46 2zm10.83-17.89l-.4.07a19.94 19.94 0 00-1-2.61l-.33-.72 10.61-4.88.33.71a19.9 19.9 0 001.35 2.45l-.31.25a9.28 9.28 0 01-2.6-2l-2.72 1.25L75 32.46l1.79-.32.12.28-5.23 2.41-.13-.28 1.4-1.15-5.22-11.32L65 23.33a8.83 8.83 0 01-.17 3.26zM152 183.13a27.6 27.6 0 00-13.68-3.13 27.68 27.68 0 00-13.66 3.15 34.51 34.51 0 01-16.49 3.79 34.59 34.59 0 01-16.5-3.79A27.64 27.64 0 0078 180a27.64 27.64 0 00-13.65 3.15 34.54 34.54 0 01-16.49 3.79A33.45 33.45 0 0133.28 184c.24 1.5.52 3 .85 4.44a30.4 30.4 0 0013.75 2.81 31.59 31.59 0 0015.37-3.54A30.62 30.62 0 0178 184.29a30.67 30.67 0 0114.78 3.4 31.59 31.59 0 0015.37 3.54 31.59 31.59 0 0015.37-3.54 30.67 30.67 0 0114.78-3.4 30.73 30.73 0 0114.78 3.4 31.51 31.51 0 0015.36 3.54 30.42 30.42 0 0013.76-2.81c.32-1.46.61-2.94.84-4.44a33.56 33.56 0 01-14.6 2.94 34.62 34.62 0 01-16.44-3.79zm0 13.35a27.66 27.66 0 00-13.63-3.15 27.78 27.78 0 00-13.65 3.15 34.59 34.59 0 01-16.5 3.79 34.64 34.64 0 01-16.51-3.79A27.74 27.74 0 0078 193.33a27.74 27.74 0 00-13.64 3.15 34.59 34.59 0 01-16.5 3.79 35.54 35.54 0 01-10.65-1.45q.93 2.43 2 4.79a34.09 34.09 0 008.64 1 31.56 31.56 0 0015.37-3.54A30.62 30.62 0 0178 197.65a30.75 30.75 0 0114.79 3.4 31.48 31.48 0 0015.36 3.54 31.59 31.59 0 0015.37-3.54 30.67 30.67 0 0114.78-3.4 30.73 30.73 0 0114.78 3.4 31.51 31.51 0 0015.36 3.54 34.09 34.09 0 008.64-1q1.08-2.36 2-4.79a35.54 35.54 0 01-10.65 1.45 34.67 34.67 0 01-16.43-3.77zm0 13.36a27.71 27.71 0 00-13.64-3.15 27.72 27.72 0 00-13.65 3.15 34.64 34.64 0 01-16.5 3.79 34.61 34.61 0 01-16.5-3.79A27.75 27.75 0 0078 206.69a27.68 27.68 0 00-13.64 3.15 34.64 34.64 0 01-16.5 3.79c-1.13 0-2.16 0-3.14-.12 1 1.52 2 3 3.14 4.43a31.56 31.56 0 0015.37-3.54A30.62 30.62 0 0178 211a30.6 30.6 0 0114.78 3.41 31.6 31.6 0 0015.37 3.53 31.48 31.48 0 0015.37-3.54 30.67 30.67 0 0114.78-3.4 30.67 30.67 0 0114.78 3.41 31.53 31.53 0 0015.36 3.53q1.65-2.15 3.14-4.43c-1 .07-2 .12-3.14.12a34.64 34.64 0 01-16.44-3.79zM138.32 220a27.79 27.79 0 00-13.66 3.15 34.51 34.51 0 01-16.49 3.85 34.59 34.59 0 01-16.5-3.79A27.75 27.75 0 0078 220a27.75 27.75 0 00-13.65 3.15 36.92 36.92 0 01-9.05 3.12q1.74 1.69 3.58 3.27c1.55-.54 2.94-1.18 4.35-1.82A30.53 30.53 0 0178 224.35a30.54 30.54 0 0114.78 3.41 31.56 31.56 0 0015.37 3.54 31.59 31.59 0 0015.37-3.54 30.54 30.54 0 0114.78-3.41 30.6 30.6 0 0114.78 3.41c1.41.65 2.8 1.28 4.34 1.83q1.84-1.59 3.59-3.28a37.1 37.1 0 01-9.07-3.12 27.71 27.71 0 00-13.62-3.19zm-13.65 16.55a34.71 34.71 0 01-16.5 3.79 34.68 34.68 0 01-16.5-3.79A27.71 27.71 0 0078 233.39a26.69 26.69 0 00-11.24 2.09q2.27 1.49 4.64 2.8a35.32 35.32 0 016.6-.57 30.65 30.65 0 0114.78 3.4 31.5 31.5 0 0015.37 3.54 31.45 31.45 0 0015.38-3.55 30.67 30.67 0 0114.77-3.39 35.32 35.32 0 016.6.57q2.37-1.32 4.64-2.8a26.69 26.69 0 00-11.24-2.09 27.68 27.68 0 00-13.63 3.16z"
       id="path10"
       style="fill:#ffffff" />
  </g>
</svg>
